<svg width="61" height="16" viewBox="0 0 61 16" fill="none" xmlns="http://www.w3.org/2000/svg">
<rect width="61" height="16" rx="2" fill="#F83249"/>
<path d="M3.69434 11V4.5752H5.43018V9.59814H7.9043V11H3.69434ZM10.5586 6.021V11H8.84033V6.021H10.5586ZM9.70605 4.01709C9.95215 4.01709 10.166 4.06836 10.3477 4.1709C10.5322 4.27344 10.6245 4.47705 10.6245 4.78174C10.6245 5.07764 10.5322 5.27832 10.3477 5.38379C10.166 5.48633 9.95215 5.5376 9.70605 5.5376C9.4541 5.5376 9.23877 5.48633 9.06006 5.38379C8.88428 5.27832 8.79639 5.07764 8.79639 4.78174C8.79639 4.47705 8.88428 4.27344 9.06006 4.1709C9.23877 4.06836 9.4541 4.01709 9.70605 4.01709ZM14.6411 13.1621V11.1011C14.6411 10.978 14.6455 10.8564 14.6543 10.7363C14.6631 10.6133 14.6763 10.4917 14.6938 10.3716H14.6411C14.5239 10.5679 14.3599 10.7363 14.1489 10.877C13.9409 11.0176 13.667 11.0879 13.3271 11.0879C12.7969 11.0879 12.3662 10.8696 12.0352 10.4331C11.707 9.99658 11.543 9.35791 11.543 8.51709C11.543 7.95459 11.6191 7.48145 11.7715 7.09766C11.9238 6.71387 12.1362 6.42383 12.4087 6.22754C12.6812 6.03125 12.9961 5.93311 13.3535 5.93311C13.6992 5.93311 13.979 6.00049 14.1929 6.13525C14.4097 6.27002 14.5825 6.43701 14.7114 6.63623H14.7466L14.874 6.021H16.3594V13.1621H14.6411ZM14.0259 9.75635C14.2134 9.75635 14.3613 9.71826 14.4697 9.64209C14.5781 9.56299 14.6558 9.4458 14.7026 9.29053C14.7495 9.13232 14.7729 8.93457 14.7729 8.69727V8.49072C14.7729 8.10107 14.7202 7.79932 14.6147 7.58545C14.5093 7.37158 14.3042 7.26465 13.9995 7.26465C13.7622 7.26465 13.5835 7.37305 13.4634 7.58984C13.3462 7.80664 13.2876 8.12451 13.2876 8.54346C13.2876 8.97705 13.3477 9.2876 13.4678 9.4751C13.5908 9.6626 13.7769 9.75635 14.0259 9.75635ZM22.3931 6.021V11H21.0967L20.8813 10.3804H20.7803C20.6777 10.5474 20.5474 10.6836 20.3892 10.7891C20.2339 10.8916 20.061 10.9663 19.8706 11.0132C19.6802 11.063 19.4824 11.0879 19.2773 11.0879C18.9521 11.0879 18.6577 11.0249 18.394 10.8989C18.1333 10.7729 17.9253 10.5752 17.77 10.3057C17.6177 10.0361 17.5415 9.68896 17.5415 9.26416V6.021H19.2598V8.74121C19.2598 9.06348 19.3052 9.30957 19.396 9.47949C19.4897 9.64648 19.6421 9.72998 19.853 9.72998C20.0698 9.72998 20.2368 9.67139 20.354 9.5542C20.4741 9.43701 20.5576 9.26416 20.6045 9.03564C20.6514 8.80713 20.6748 8.52881 20.6748 8.20068V6.021H22.3931ZM25.3066 6.021V11H23.5884V6.021H25.3066ZM24.4541 4.01709C24.7002 4.01709 24.9141 4.06836 25.0957 4.1709C25.2803 4.27344 25.3726 4.47705 25.3726 4.78174C25.3726 5.07764 25.2803 5.27832 25.0957 5.38379C24.9141 5.48633 24.7002 5.5376 24.4541 5.5376C24.2021 5.5376 23.9868 5.48633 23.8081 5.38379C23.6323 5.27832 23.5444 5.07764 23.5444 4.78174C23.5444 4.47705 23.6323 4.27344 23.8081 4.1709C23.9868 4.06836 24.2021 4.01709 24.4541 4.01709ZM28.0532 11.0879C27.5405 11.0879 27.1187 10.8696 26.7876 10.4331C26.4565 9.99658 26.291 9.35791 26.291 8.51709C26.291 7.66748 26.4609 7.02441 26.8008 6.58789C27.1406 6.15137 27.5801 5.93311 28.1191 5.93311C28.3418 5.93311 28.5337 5.96533 28.6948 6.02979C28.856 6.09424 28.9951 6.18213 29.1123 6.29346C29.2324 6.40186 29.3364 6.5249 29.4243 6.6626H29.4595C29.439 6.53662 29.4199 6.36377 29.4023 6.14404C29.3848 5.92139 29.376 5.70459 29.376 5.49365V4.16211H31.1074V11H29.811L29.4419 10.3716H29.376C29.2969 10.5034 29.1973 10.6235 29.0771 10.7319C28.96 10.8403 28.8164 10.9268 28.6465 10.9912C28.4795 11.0557 28.2817 11.0879 28.0532 11.0879ZM28.7563 9.72998C29.0317 9.72998 29.2251 9.64355 29.3364 9.4707C29.4507 9.29492 29.5122 9.02832 29.521 8.6709V8.53467C29.521 8.14209 29.4653 7.8418 29.354 7.63379C29.2456 7.42285 29.0405 7.31738 28.7388 7.31738C28.5337 7.31738 28.3638 7.41699 28.229 7.61621C28.0942 7.81543 28.0269 8.12451 28.0269 8.54346C28.0269 8.95654 28.0942 9.2583 28.229 9.44873C28.3667 9.63623 28.5425 9.72998 28.7563 9.72998ZM34.7285 5.93311C35.3584 5.93311 35.8506 6.08984 36.2051 6.40332C36.5596 6.71387 36.7368 7.15771 36.7368 7.73486V11H35.5459L35.2163 10.3408H35.1812C35.0405 10.5166 34.8955 10.6602 34.7461 10.7715C34.5996 10.8799 34.4312 10.959 34.2407 11.0088C34.0503 11.0615 33.8174 11.0879 33.542 11.0879C33.2549 11.0879 32.9971 11.0293 32.7686 10.9121C32.54 10.7949 32.3599 10.6177 32.228 10.3804C32.0962 10.1431 32.0303 9.84277 32.0303 9.47949C32.0303 8.94629 32.2148 8.55078 32.584 8.29297C32.9531 8.03516 33.4878 7.89014 34.188 7.85791L35.0186 7.83154V7.76123C35.0186 7.53857 34.9629 7.38037 34.8516 7.28662C34.7432 7.19287 34.5967 7.146 34.4121 7.146C34.2158 7.146 33.9961 7.18115 33.7529 7.25146C33.5127 7.31885 33.271 7.40674 33.0278 7.51514L32.5312 6.38135C32.8184 6.23486 33.1436 6.12354 33.5068 6.04736C33.8701 5.97119 34.2773 5.93311 34.7285 5.93311ZM35.0273 8.77637L34.6318 8.79395C34.3154 8.80566 34.0928 8.86133 33.9639 8.96094C33.8379 9.05762 33.7749 9.19678 33.7749 9.37842C33.7749 9.54834 33.8203 9.67432 33.9111 9.75635C34.002 9.83545 34.1221 9.875 34.2715 9.875C34.4795 9.875 34.6567 9.80908 34.8032 9.67725C34.9526 9.54541 35.0273 9.37402 35.0273 9.16309V8.77637ZM40.1733 11.0879C39.6694 11.0879 39.2314 10.9985 38.8594 10.8198C38.4873 10.6382 38.1987 10.3599 37.9937 9.98486C37.7915 9.60693 37.6904 9.12354 37.6904 8.53467C37.6904 7.93115 37.8032 7.4375 38.0288 7.05371C38.2573 6.66992 38.5693 6.38721 38.9648 6.20557C39.3604 6.02393 39.8086 5.93311 40.3096 5.93311C40.6143 5.93311 40.9028 5.9668 41.1753 6.03418C41.4507 6.10156 41.7056 6.19385 41.9399 6.31104L41.4346 7.58105C41.2295 7.49023 41.0376 7.41846 40.8589 7.36572C40.6831 7.31006 40.5 7.28223 40.3096 7.28223C40.1367 7.28223 39.9844 7.32764 39.8525 7.41846C39.7207 7.50928 39.6182 7.64697 39.5449 7.83154C39.4717 8.01318 39.4351 8.24463 39.4351 8.52588C39.4351 8.81299 39.4717 9.04443 39.5449 9.22021C39.6211 9.396 39.7251 9.52344 39.8569 9.60254C39.9917 9.68164 40.1455 9.72119 40.3184 9.72119C40.5674 9.72119 40.8149 9.68311 41.061 9.60693C41.3101 9.52783 41.5459 9.41943 41.7686 9.28174V10.6484C41.5635 10.7832 41.332 10.8901 41.0742 10.9692C40.8164 11.0483 40.5161 11.0879 40.1733 11.0879ZM44.4844 6.021V11H42.7661V6.021H44.4844ZM43.6318 4.01709C43.8779 4.01709 44.0918 4.06836 44.2734 4.1709C44.458 4.27344 44.5503 4.47705 44.5503 4.78174C44.5503 5.07764 44.458 5.27832 44.2734 5.38379C44.0918 5.48633 43.8779 5.5376 43.6318 5.5376C43.3799 5.5376 43.1646 5.48633 42.9858 5.38379C42.8101 5.27832 42.7222 5.07764 42.7222 4.78174C42.7222 4.47705 42.8101 4.27344 42.9858 4.1709C43.1646 4.06836 43.3799 4.01709 43.6318 4.01709ZM50.439 8.49951C50.439 8.91553 50.3818 9.28467 50.2676 9.60693C50.1533 9.9292 49.9878 10.2002 49.771 10.4199C49.5542 10.6396 49.292 10.8066 48.9844 10.9209C48.6768 11.0322 48.3296 11.0879 47.9429 11.0879C47.5825 11.0879 47.2515 11.0322 46.9497 10.9209C46.6509 10.8066 46.3901 10.6396 46.1675 10.4199C45.9448 10.2002 45.772 9.9292 45.6489 9.60693C45.5288 9.28467 45.4688 8.91553 45.4688 8.49951C45.4688 7.94873 45.5684 7.48291 45.7676 7.10205C45.9697 6.72119 46.2568 6.43115 46.6289 6.23193C47.0039 6.03271 47.4507 5.93311 47.9692 5.93311C48.4468 5.93311 48.8716 6.03271 49.2437 6.23193C49.6157 6.43115 49.9072 6.72119 50.1182 7.10205C50.332 7.48291 50.439 7.94873 50.439 8.49951ZM47.2134 8.49951C47.2134 8.78369 47.2383 9.02393 47.2881 9.22021C47.3379 9.41357 47.417 9.56152 47.5254 9.66406C47.6367 9.76367 47.7817 9.81348 47.9604 9.81348C48.1392 9.81348 48.2812 9.76367 48.3867 9.66406C48.4922 9.56152 48.5684 9.41357 48.6152 9.22021C48.665 9.02393 48.6899 8.78369 48.6899 8.49951C48.6899 8.21533 48.665 7.97803 48.6152 7.7876C48.5684 7.59717 48.4907 7.45361 48.3823 7.35693C48.2769 7.26025 48.1333 7.21191 47.9517 7.21191C47.6909 7.21191 47.502 7.32031 47.3848 7.53711C47.2705 7.75391 47.2134 8.07471 47.2134 8.49951ZM50.105 4.10498V4.19727C49.9995 4.28223 49.8647 4.38623 49.7007 4.50928C49.5366 4.62939 49.3623 4.75537 49.1777 4.88721C48.9961 5.01611 48.8188 5.13916 48.646 5.25635C48.4761 5.37354 48.3296 5.47021 48.2065 5.54639H47.064V5.41895C47.1665 5.30762 47.2896 5.17578 47.4331 5.02344C47.5767 4.86816 47.7202 4.70996 47.8638 4.54883C48.0073 4.3877 48.1274 4.23975 48.2241 4.10498H50.105ZM54.5391 5.93311C55.0518 5.93311 55.4707 6.07812 55.7959 6.36816C56.1211 6.6582 56.2837 7.12256 56.2837 7.76123V11H54.5654V8.28418C54.5654 7.95312 54.5171 7.7041 54.4204 7.53711C54.3267 7.36719 54.1743 7.28223 53.9634 7.28223C53.6382 7.28223 53.4199 7.41553 53.3086 7.68213C53.1973 7.9458 53.1416 8.3252 53.1416 8.82031V11H51.4233V6.021H52.7197L52.9526 6.68018H53.0186C53.124 6.52197 53.25 6.38721 53.3965 6.27588C53.543 6.16455 53.7114 6.07959 53.9019 6.021C54.0923 5.9624 54.3047 5.93311 54.5391 5.93311Z" fill="white"/>
</svg>
