<svg width="41" height="16" viewBox="0 0 41 16" fill="none" xmlns="http://www.w3.org/2000/svg">
<rect width="41" height="16" rx="2" fill="#FED4D3"/>
<path d="M8.70605 7.77881C8.70605 8.27393 8.646 8.7251 8.52588 9.13232C8.40869 9.53662 8.22412 9.88525 7.97217 10.1782C7.72021 10.4712 7.39648 10.6968 7.00098 10.855C6.60547 11.0103 6.13232 11.0879 5.58154 11.0879C5.04248 11.0879 4.5752 11.0103 4.17969 10.855C3.78711 10.6968 3.46338 10.4727 3.2085 10.1826C2.95361 9.88965 2.76465 9.53955 2.6416 9.13232C2.51855 8.7251 2.45703 8.271 2.45703 7.77002C2.45703 7.10205 2.56689 6.52197 2.78662 6.02979C3.00928 5.53467 3.35205 5.15234 3.81494 4.88281C4.27783 4.61035 4.86963 4.47412 5.59033 4.47412C6.32275 4.47412 6.91748 4.61035 7.37451 4.88281C7.83447 5.15527 8.17139 5.53906 8.38525 6.03418C8.59912 6.5293 8.70605 7.11084 8.70605 7.77881ZM4.28516 7.77881C4.28516 8.16553 4.3291 8.49805 4.41699 8.77637C4.50488 9.05469 4.64404 9.26855 4.83447 9.41797C5.0249 9.56738 5.27393 9.64209 5.58154 9.64209C5.90088 9.64209 6.1543 9.56738 6.3418 9.41797C6.53223 9.26855 6.66846 9.05469 6.75049 8.77637C6.83545 8.49805 6.87793 8.16553 6.87793 7.77881C6.87793 7.19873 6.78125 6.74023 6.58789 6.40332C6.39453 6.06641 6.06201 5.89795 5.59033 5.89795C5.27686 5.89795 5.02344 5.97412 4.83008 6.12646C4.63965 6.27881 4.50049 6.49561 4.4126 6.77686C4.32764 7.05811 4.28516 7.39209 4.28516 7.77881ZM12.8062 7.30859H11.7471V11H10.0288V7.30859H9.36963V6.46484L10.064 6.04297V5.95947C10.064 5.52881 10.1211 5.17871 10.2354 4.90918C10.3496 4.63672 10.5312 4.43604 10.7803 4.30713C11.0293 4.17822 11.3545 4.11377 11.7559 4.11377C12.0137 4.11377 12.2466 4.13428 12.4546 4.17529C12.6655 4.21631 12.8853 4.2749 13.1138 4.35107L12.7446 5.46289C12.6597 5.43945 12.5645 5.41895 12.459 5.40137C12.3564 5.38379 12.2451 5.375 12.125 5.375C11.9932 5.375 11.8965 5.41602 11.835 5.49805C11.7764 5.57715 11.7471 5.70752 11.7471 5.88916V6.021H12.8062V7.30859ZM15.7241 5.93311C16.2075 5.93311 16.625 6.01807 16.9766 6.18799C17.3281 6.35498 17.5991 6.60693 17.7896 6.94385C17.98 7.28076 18.0752 7.70264 18.0752 8.20947V8.97412H15.0034C15.0181 9.23486 15.1147 9.44873 15.2935 9.61572C15.4751 9.78271 15.7417 9.86621 16.0933 9.86621C16.4038 9.86621 16.688 9.83545 16.9458 9.77393C17.2065 9.7124 17.4746 9.61719 17.75 9.48828V10.7231C17.5098 10.8491 17.2476 10.9414 16.9634 11C16.6792 11.0586 16.3203 11.0879 15.8867 11.0879C15.3857 11.0879 14.9375 10.9985 14.542 10.8198C14.1465 10.6411 13.8345 10.3643 13.606 9.98926C13.3804 9.61426 13.2676 9.13232 13.2676 8.54346C13.2676 7.9458 13.3701 7.45508 13.5752 7.07129C13.7803 6.68457 14.0674 6.39893 14.4365 6.21436C14.8057 6.02686 15.2349 5.93311 15.7241 5.93311ZM15.7856 7.10205C15.5835 7.10205 15.4136 7.1665 15.2759 7.29541C15.1411 7.42139 15.062 7.62061 15.0386 7.89307H16.5151C16.5122 7.74658 16.4829 7.61328 16.4272 7.49316C16.3716 7.37305 16.2896 7.27783 16.1812 7.20752C16.0757 7.13721 15.9438 7.10205 15.7856 7.10205ZM22.0522 5.93311C22.146 5.93311 22.2441 5.94043 22.3467 5.95508C22.4492 5.9668 22.5254 5.97705 22.5752 5.98584L22.4214 7.60742C22.3657 7.59277 22.2939 7.58105 22.2061 7.57227C22.1182 7.56055 21.9951 7.55469 21.8369 7.55469C21.7285 7.55469 21.6128 7.56494 21.4897 7.58545C21.3667 7.60596 21.2495 7.6499 21.1382 7.71729C21.0298 7.78174 20.9404 7.88135 20.8701 8.01611C20.7998 8.14795 20.7646 8.32666 20.7646 8.55225V11H19.0464V6.021H20.3252L20.5933 6.81641H20.6768C20.7676 6.65234 20.8833 6.50439 21.0239 6.37256C21.1675 6.23779 21.3271 6.13086 21.5029 6.05176C21.6816 5.97266 21.8647 5.93311 22.0522 5.93311ZM25.7129 9.72998C25.8682 9.72998 26.0103 9.71387 26.1392 9.68164C26.2681 9.64941 26.4028 9.6084 26.5435 9.55859V10.811C26.356 10.8931 26.1567 10.959 25.9458 11.0088C25.7378 11.0615 25.4712 11.0879 25.146 11.0879C24.8237 11.0879 24.5396 11.0381 24.2935 10.9385C24.0474 10.8359 23.8555 10.6602 23.7178 10.4111C23.583 10.1592 23.5156 9.80908 23.5156 9.36084V7.30859H22.9136V6.60986L23.6782 6.06934L24.1221 5.02344H25.2471V6.021H26.4688V7.30859H25.2471V9.24658C25.2471 9.40771 25.2881 9.5293 25.3701 9.61133C25.4521 9.69043 25.5664 9.72998 25.7129 9.72998ZM29.8438 5.93311C30.4736 5.93311 30.9658 6.08984 31.3203 6.40332C31.6748 6.71387 31.8521 7.15771 31.8521 7.73486V11H30.6611L30.3315 10.3408H30.2964C30.1558 10.5166 30.0107 10.6602 29.8613 10.7715C29.7148 10.8799 29.5464 10.959 29.356 11.0088C29.1655 11.0615 28.9326 11.0879 28.6572 11.0879C28.3701 11.0879 28.1123 11.0293 27.8838 10.9121C27.6553 10.7949 27.4751 10.6177 27.3433 10.3804C27.2114 10.1431 27.1455 9.84277 27.1455 9.47949C27.1455 8.94629 27.3301 8.55078 27.6992 8.29297C28.0684 8.03516 28.603 7.89014 29.3032 7.85791L30.1338 7.83154V7.76123C30.1338 7.53857 30.0781 7.38037 29.9668 7.28662C29.8584 7.19287 29.7119 7.146 29.5273 7.146C29.3311 7.146 29.1113 7.18115 28.8682 7.25146C28.6279 7.31885 28.3862 7.40674 28.1431 7.51514L27.6465 6.38135C27.9336 6.23486 28.2588 6.12354 28.6221 6.04736C28.9854 5.97119 29.3926 5.93311 29.8438 5.93311ZM30.1426 8.77637L29.7471 8.79395C29.4307 8.80566 29.208 8.86133 29.0791 8.96094C28.9531 9.05762 28.8901 9.19678 28.8901 9.37842C28.8901 9.54834 28.9355 9.67432 29.0264 9.75635C29.1172 9.83545 29.2373 9.875 29.3867 9.875C29.5947 9.875 29.772 9.80908 29.9185 9.67725C30.0679 9.54541 30.1426 9.37402 30.1426 9.16309V8.77637ZM36.7212 9.4707C36.7212 9.78711 36.6509 10.0669 36.5103 10.3101C36.3696 10.5532 36.144 10.7437 35.8335 10.8813C35.5259 11.019 35.1201 11.0879 34.6162 11.0879C34.2617 11.0879 33.9438 11.0688 33.6626 11.0308C33.3843 10.9927 33.1016 10.9194 32.8145 10.811V9.43555C33.1279 9.5791 33.4473 9.68311 33.7725 9.74756C34.0977 9.80908 34.354 9.83984 34.5415 9.83984C34.7349 9.83984 34.8755 9.81934 34.9634 9.77832C35.0542 9.73438 35.0996 9.66992 35.0996 9.58496C35.0996 9.51172 35.0688 9.4502 35.0073 9.40039C34.9487 9.34766 34.8418 9.2876 34.6865 9.22021C34.5342 9.15283 34.3188 9.06201 34.0405 8.94775C33.7651 8.8335 33.5352 8.70898 33.3506 8.57422C33.1689 8.43945 33.0327 8.27832 32.9419 8.09082C32.8511 7.90332 32.8057 7.67334 32.8057 7.40088C32.8057 6.91455 32.9932 6.54834 33.3682 6.30225C33.7432 6.05615 34.2397 5.93311 34.8579 5.93311C35.186 5.93311 35.4951 5.96973 35.7852 6.04297C36.0752 6.11328 36.3755 6.21729 36.686 6.35498L36.2158 7.4624C35.9697 7.35107 35.7207 7.26172 35.4688 7.19434C35.2168 7.12695 35.0161 7.09326 34.8667 7.09326C34.7319 7.09326 34.6279 7.11084 34.5547 7.146C34.4814 7.18115 34.4448 7.23242 34.4448 7.2998C34.4448 7.36133 34.4697 7.41553 34.5195 7.4624C34.5723 7.50928 34.6704 7.56348 34.814 7.625C34.9575 7.68652 35.167 7.77295 35.4424 7.88428C35.7324 8.00146 35.9712 8.12744 36.1587 8.26221C36.3491 8.39404 36.4897 8.55518 36.5806 8.74561C36.6743 8.93604 36.7212 9.17773 36.7212 9.4707Z" fill="#B10D23"/>
</svg>
