<svg width="32" height="16" viewBox="0 0 32 16" fill="none" xmlns="http://www.w3.org/2000/svg">
<rect width="32" height="16" rx="2" fill="#FAE281"/>
<path d="M5.55518 5.90674C5.3501 5.90674 5.16699 5.95068 5.00586 6.03857C4.84473 6.12354 4.70703 6.24805 4.59277 6.41211C4.47852 6.57617 4.39062 6.77686 4.3291 7.01416C4.27051 7.24854 4.24121 7.51514 4.24121 7.81396C4.24121 8.21826 4.29248 8.55811 4.39502 8.8335C4.49756 9.10889 4.65283 9.31689 4.86084 9.45752C5.07178 9.59814 5.33545 9.66846 5.65186 9.66846C5.93896 9.66846 6.21436 9.62891 6.47803 9.5498C6.74463 9.4707 7.0127 9.37549 7.28223 9.26416V10.7319C6.99805 10.8579 6.70654 10.9487 6.40771 11.0044C6.11182 11.0601 5.79688 11.0879 5.46289 11.0879C4.76562 11.0879 4.19434 10.9502 3.74902 10.6748C3.30664 10.3965 2.97998 10.0112 2.76904 9.51904C2.56104 9.02686 2.45703 8.45557 2.45703 7.80518C2.45703 7.31885 2.52441 6.87354 2.65918 6.46924C2.79688 6.06494 2.99756 5.71484 3.26123 5.41895C3.5249 5.12012 3.8501 4.89014 4.23682 4.729C4.62646 4.56494 5.07178 4.48291 5.57275 4.48291C5.8833 4.48291 6.20996 4.51953 6.55273 4.59277C6.89844 4.66309 7.23535 4.77734 7.56348 4.93555L7.03174 6.30225C6.79736 6.19092 6.56006 6.09717 6.31982 6.021C6.07959 5.94482 5.82471 5.90674 5.55518 5.90674ZM7.83594 6.021H9.64648L10.4902 8.87744C10.502 8.91846 10.5137 8.96973 10.5254 9.03125C10.5371 9.08984 10.5474 9.15283 10.5562 9.22021C10.5649 9.2876 10.5708 9.35352 10.5737 9.41797H10.6089C10.6235 9.29785 10.6396 9.19385 10.6572 9.10596C10.6777 9.01514 10.6968 8.94189 10.7144 8.88623L11.5801 6.021H13.3335L11.3647 11.3164C11.2124 11.7207 11.0352 12.0591 10.833 12.3315C10.6338 12.6069 10.3862 12.8135 10.0903 12.9512C9.79736 13.0918 9.43262 13.1621 8.99609 13.1621C8.83789 13.1621 8.70166 13.1533 8.5874 13.1357C8.47607 13.1211 8.37793 13.105 8.29297 13.0874V11.7383C8.35742 11.75 8.43652 11.7617 8.53027 11.7734C8.62402 11.7852 8.72217 11.791 8.82471 11.791C9.01514 11.791 9.16895 11.7529 9.28613 11.6768C9.40625 11.6006 9.50439 11.4995 9.58057 11.3735C9.65674 11.2505 9.72266 11.1172 9.77832 10.9736L9.7959 10.9297L7.83594 6.021ZM15.6494 4.16211V5.70898C15.6494 5.88477 15.6436 6.05322 15.6318 6.21436C15.6201 6.37256 15.6055 6.52197 15.5879 6.6626H15.6494C15.7783 6.46045 15.9468 6.28906 16.1548 6.14844C16.3628 6.00488 16.6353 5.93311 16.9722 5.93311C17.4907 5.93311 17.9141 6.15283 18.2422 6.59229C18.5732 7.03174 18.7388 7.66748 18.7388 8.49951C18.7388 9.06494 18.6626 9.54102 18.5103 9.92773C18.3579 10.3115 18.144 10.6016 17.8687 10.7979C17.5962 10.9912 17.2798 11.0879 16.9194 11.0879C16.5679 11.0879 16.2998 11.0278 16.1152 10.9077C15.9336 10.7847 15.7783 10.6528 15.6494 10.5122H15.5439L15.2715 11H13.9312V4.16211H15.6494ZM16.3438 7.28223C16.1855 7.28223 16.0552 7.31885 15.9526 7.39209C15.8501 7.46533 15.7739 7.57959 15.7241 7.73486C15.6743 7.88721 15.6494 8.08203 15.6494 8.31934V8.56104C15.6494 8.94775 15.7007 9.23486 15.8032 9.42236C15.9087 9.60986 16.0947 9.70361 16.3613 9.70361C16.5635 9.70361 16.7188 9.59961 16.8271 9.3916C16.9355 9.18359 16.9897 8.88037 16.9897 8.48193C16.9897 8.0835 16.937 7.78467 16.8315 7.58545C16.7261 7.3833 16.5635 7.28223 16.3438 7.28223ZM21.9644 5.93311C22.4478 5.93311 22.8652 6.01807 23.2168 6.18799C23.5684 6.35498 23.8394 6.60693 24.0298 6.94385C24.2202 7.28076 24.3154 7.70264 24.3154 8.20947V8.97412H21.2437C21.2583 9.23486 21.355 9.44873 21.5337 9.61572C21.7153 9.78271 21.9819 9.86621 22.3335 9.86621C22.644 9.86621 22.9282 9.83545 23.186 9.77393C23.4468 9.7124 23.7148 9.61719 23.9902 9.48828V10.7231C23.75 10.8491 23.4878 10.9414 23.2036 11C22.9194 11.0586 22.5605 11.0879 22.127 11.0879C21.626 11.0879 21.1777 10.9985 20.7822 10.8198C20.3867 10.6411 20.0747 10.3643 19.8462 9.98926C19.6206 9.61426 19.5078 9.13232 19.5078 8.54346C19.5078 7.9458 19.6104 7.45508 19.8154 7.07129C20.0205 6.68457 20.3076 6.39893 20.6768 6.21436C21.0459 6.02686 21.4751 5.93311 21.9644 5.93311ZM22.0259 7.10205C21.8237 7.10205 21.6538 7.1665 21.5161 7.29541C21.3813 7.42139 21.3022 7.62061 21.2788 7.89307H22.7554C22.7524 7.74658 22.7231 7.61328 22.6675 7.49316C22.6118 7.37305 22.5298 7.27783 22.4214 7.20752C22.3159 7.13721 22.1841 7.10205 22.0259 7.10205ZM28.2925 5.93311C28.3862 5.93311 28.4844 5.94043 28.5869 5.95508C28.6895 5.9668 28.7656 5.97705 28.8154 5.98584L28.6616 7.60742C28.606 7.59277 28.5342 7.58105 28.4463 7.57227C28.3584 7.56055 28.2354 7.55469 28.0771 7.55469C27.9688 7.55469 27.853 7.56494 27.73 7.58545C27.6069 7.60596 27.4897 7.6499 27.3784 7.71729C27.27 7.78174 27.1807 7.88135 27.1104 8.01611C27.04 8.14795 27.0049 8.32666 27.0049 8.55225V11H25.2866V6.021H26.5654L26.8335 6.81641H26.917C27.0078 6.65234 27.1235 6.50439 27.2642 6.37256C27.4077 6.23779 27.5674 6.13086 27.7432 6.05176C27.9219 5.97266 28.105 5.93311 28.2925 5.93311Z" fill="#17150F"/>
</svg>
